<svg xmlns="http://www.w3.org/2000/svg" class="store">
    <symbol id="home" viewBox="0 0 20 20">
        <path d="M10.229 0L0 7.697l.861 1.357.825-.621V20h16.657V8.459l.757.599.9-1.327L10.229 0zm1.3 18.352H8.5v-6.594h3.03v6.594zm5.3 0h-3.786V10.11H6.986v8.242H3.2V7.292l7-5.266 6.63 5.238v11.088z" />
    </symbol>
    <symbol id="play" viewBox="0 0 1024 1024">
        <path d="M912.724884 429.355681L208.797545 13.198638C151.603449-20.597874 64.01249 12.198741 64.01249 95.790112V927.904219c0 74.992259 81.391599 120.187594 144.785055 82.591475l703.927339-415.957064c62.793518-36.996181 62.993498-128.186768 0-165.182949z"></path>
    </symbol>
    <symbol id="pause" viewBox="0 0 1024 1024">
        <path d="M352 958H160c-53 0-96-43-96-96V158c0-53 43-96 96-96h192c53 0 96 43 96 96v704c0 53-43 96-96 96z m608-96V158c0-53-43-96-96-96h-192c-53 0-96 43-96 96v704c0 53 43 96 96 96h192c53 0 96-43 96-96z"></path>
    </symbol>
    <symbol id="volume" viewBox="0 0 1024 1024">
        <path d="M484.430769 51.2L236.307692 354.461538H118.153846c-43.323077 0-78.769231 35.446154-78.769231 78.769231v157.538462c0 43.323077 35.446154 78.769231 78.769231 78.769231h118.153846l248.123077 303.261538c25.6 25.6 66.953846 7.876923 66.953846-27.569231V78.769231c0-35.446154-43.323077-53.169231-66.953846-27.569231z m354.461539 120.123077c-7.876923-7.876923-19.692308-7.876923-27.569231 0l-27.569231 27.569231c-7.876923 7.876923-7.876923 21.661538 0 27.56923C858.584615 299.323077 905.846154 399.753846 905.846154 512c0 112.246154-47.261538 212.676923-122.092308 285.538462-7.876923 7.876923-7.876923 19.692308 0 27.56923l27.569231 27.569231c7.876923 7.876923 19.692308 7.876923 27.569231 0C927.507692 768 984.615385 645.907692 984.615385 512c0-133.907692-55.138462-256-145.723077-340.676923z m-124.061539 126.030769c-7.876923-7.876923-19.692308-7.876923-27.569231 0l-27.56923 27.569231c-7.876923 7.876923-7.876923 19.692308 0 27.569231 43.323077 39.384615 68.923077 96.492308 68.923077 159.507692 0 63.015385-27.569231 120.123077-70.892308 159.507692-7.876923 7.876923-7.876923 19.692308 0 27.569231l27.569231 27.569231c7.876923 7.876923 19.692308 7.876923 27.56923 0 57.107692-53.169231 94.523077-129.969231 94.523077-216.615385 0-82.707692-35.446154-159.507692-92.553846-212.676923z"></path>
    </symbol>
    <symbol id="volume-off" viewBox="0 0 1024 1024">
        <path d="M484.430769 51.2L236.307692 354.461538H118.153846c-43.323077 0-78.769231 35.446154-78.769231 78.769231v157.538462c0 43.323077 35.446154 78.769231 78.769231 78.769231h118.153846l248.123077 303.261538c25.6 25.6 66.953846 7.876923 66.953846-27.569231V78.769231c0-35.446154-43.323077-53.169231-66.953846-27.569231zM882.215385 512l96.492307-96.492308c7.876923-7.876923 7.876923-19.692308 0-27.56923l-27.56923-27.569231c-7.876923-7.876923-19.692308-7.876923-27.569231 0L827.076923 456.861538l-96.492308-96.492307c-7.876923-7.876923-19.692308-7.876923-27.56923 0l-27.569231 27.569231c-7.876923 7.876923-7.876923 19.692308 0 27.56923l96.492308 96.492308-96.492308 96.492308c-7.876923 7.876923-7.876923 19.692308 0 27.56923l27.569231 27.569231c7.876923 7.876923 19.692308 7.876923 27.56923 0l96.492308-96.492307 96.492308 96.492307c7.876923 7.876923 19.692308 7.876923 27.569231 0l27.56923-27.569231c7.876923-7.876923 7.876923-19.692308 0-27.56923L882.215385 512z"></path>
    </symbol>
    <symbol id="import" viewBox="0 0 1024 1024">
        <path d="M140.8 1017.6c-38.4 0-70.4-12.8-96-38.4-25.6-25.6-38.4-57.6-38.4-96v-185.6c0-12.8 6.4-25.6 12.8-32s19.2-12.8 32-12.8 25.6 6.4 32 12.8 12.8 19.2 12.8 32v185.6c0 12.8 6.4 32 12.8 38.4s19.2 12.8 38.4 12.8h742.4c12.8 0 32-6.4 38.4-12.8 6.4-6.4 12.8-19.2 12.8-38.4v-185.6c0-12.8 6.4-25.6 12.8-32 6.4-6.4 19.2-12.8 32-12.8s25.6 6.4 32 12.8c6.4 6.4 12.8 19.2 12.8 32v185.6c0 38.4-12.8 70.4-38.4 96-25.6 25.6-57.6 38.4-96 38.4H140.8zM537.6 12.8c6.4 6.4 12.8 19.2 12.8 32v544c0 6.4 6.4 6.4 6.4 6.4h6.4l153.6-160c6.4-6.4 12.8-19.2 25.6-19.2s25.6 6.4 32 12.8 12.8 19.2 12.8 32-6.4 25.6-12.8 32l-224 236.8c-6.4 6.4-19.2 12.8-32 12.8s-25.6-6.4-38.4-19.2L249.6 492.8c-6.4-6.4-12.8-19.2-12.8-32 0-6.4 6.4-12.8 19.2-25.6 6.4-6.4 19.2-12.8 32-12.8 0 0 19.2 6.4 25.6 12.8l147.2 160h6.4c6.4 0 6.4-6.4 6.4-6.4V51.2c0-12.8 6.4-25.6 12.8-32s19.2-12.8 32-12.8c6.4 0 12.8 0 19.2 6.4z"></path>
    </symbol>
    <symbol id="settings" viewBox="0 0 1024 1024">
        <path d="M512 305.318a205.708 205.708 0 1 0 205.708 205.709A205.708 205.708 0 0 0 512 305.318z m0 346.2a140.816 140.816 0 1 1 140.816-140.816A140.816 140.816 0 0 1 512 651.842z"></path>
        <path d="M958.783 393.572L885.78 382.54a391.95 391.95 0 0 0-16.872-40.882l44.127-60.026a64.892 64.892 0 0 0 0-91.822l-77.222-77.87a64.892 64.892 0 0 0-91.822 0l-59.052 43.801a392.274 392.274 0 0 0-40.882-17.196L632.7 64.892A64.892 64.892 0 0 0 567.807 0H458.464a64.892 64.892 0 0 0-64.892 64.892l-11.032 72.68a392.598 392.598 0 0 0-40.882 16.872l-60.35-44.127a64.892 64.892 0 0 0-91.823 0l-77.546 77.546a64.892 64.892 0 0 0 0 91.823l44.127 60.025a392.274 392.274 0 0 0-16.548 39.909l-74.626 9.734A64.892 64.892 0 0 0 0 454.246v109.668a64.892 64.892 0 0 0 64.892 64.892l74.302 11.356a392.274 392.274 0 0 0 16.223 41.207l-45.1 60.999a64.892 64.892 0 0 0 0 91.822l77.546 77.546a64.892 64.892 0 0 0 91.823 0l60.674-44.775a392.598 392.598 0 0 0 39.26 16.547l11.356 75.6A64.892 64.892 0 0 0 455.868 1024h109.668a64.892 64.892 0 0 0 64.892-64.892l11.357-74.302a392.923 392.923 0 0 0 39.584-16.223l61.323 45.1a64.892 64.892 0 0 0 91.823 0l77.546-77.546a64.892 64.892 0 0 0 0-91.823l-44.127-60.025a392.274 392.274 0 0 0 16.872-39.909l74.626-11.356a64.892 64.892 0 0 0 64.892-64.892V458.464a64.892 64.892 0 0 0-65.54-64.892z m0 174.56h-9.734l-74.626 11.356-38.286 5.84-12.979 36.34a329.328 329.328 0 0 1-13.951 32.446L792.01 689.48l23.361 32.446 44.127 60.026 2.92 3.893 3.57 3.57-77.547 78.195-3.569-3.57-3.894-2.92-61.323-45.1-32.446-23.036-33.744 18.17a329.653 329.653 0 0 1-32.446 13.627l-36.989 12.978-6.489 38.287-11.356 74.301v9.734H455.868V949.05l-11.356-75.6-5.84-38.286-36.664-12.978a329.004 329.004 0 0 1-32.447-13.627l-35.366-16.872-32.446 23.036-60.674 44.776-3.894 2.92-3.569 3.57-77.546-77.547 3.569-3.569 2.596-3.894 45.424-61.323 23.037-32.446-16.872-35.042a329.328 329.328 0 0 1-13.627-32.446l-12.654-35.69-38.611-6.49-74.302-11.356h-9.734v-111.94h9.734l74.626-11.355 38.611-5.84 12.979-36.665a329.328 329.328 0 0 1 13.951-32.446l16.872-35.042-23.036-32.446-44.452-59.376-1.946-3.894-4.218-3.569 77.221-77.546 3.57 3.569 3.893 2.596 60.35 44.775 32.446 23.037 35.042-16.872a329.004 329.004 0 0 1 34.068-14.276l36.989-12.979 5.84-38.61 10.058-72.68v-9.734h110.317v9.734l11.356 73.653 4.867 38.286 36.665 12.979a329.004 329.004 0 0 1 34.392 14.276l35.367 17.196 32.446-23.36 59.376-43.479 4.218-1.946 3.57-3.57 77.546 77.547-3.57 3.569-2.92 3.893-44.45 59.377-23.038 32.446 17.521 33.744a328.68 328.68 0 0 1 13.952 34.068l12.654 36.989 38.936 5.84 73.003 11.032h9.734z"></path>
    </symbol>
    <symbol id="single-left-arrow" viewBox="0 0 1024 1024">
        <path d="M672 902.4 268.8 563.2c-32-25.6-32-70.4 0-96l396.8-339.2c25.6-25.6 70.4-19.2 89.6 6.4l0 0c25.6 25.6 19.2 70.4-6.4 89.6L409.6 512l345.6 294.4c25.6 25.6 32 64 6.4 89.6l0 0C736 921.6 697.6 928 672 902.4z"></path>
    </symbol>
    <symbol id="double-left-arrow" viewBox="0 0 1024 1024">
        <path d="M518.4 902.4 115.2 563.2c-32-25.6-32-70.4 0-96l396.8-339.2C544 96 582.4 102.4 608 128l0 0c25.6 25.6 19.2 70.4-6.4 89.6L256 512l345.6 294.4c25.6 25.6 32 64 6.4 89.6l0 0C582.4 921.6 544 928 518.4 902.4zM819.2 902.4 422.4 563.2c-32-25.6-32-70.4 0-96l396.8-339.2c25.6-25.6 70.4-19.2 89.6 6.4l0 0c25.6 25.6 19.2 70.4-6.4 89.6L563.2 512l345.6 294.4c25.6 25.6 32 64 6.4 89.6l0 0C889.6 921.6 851.2 928 819.2 902.4z"></path>
    </symbol>
    <symbol id="export" viewBox="0 0 1024 1024">
        <path d="M371.626667 328.96L469.333333 230.826667V640a42.666667 42.666667 0 0 0 85.333334 0V230.826667l97.706666 98.133333a42.666667 42.666667 0 0 0 60.586667 0 42.666667 42.666667 0 0 0 0-60.586667l-170.666667-170.666666a42.666667 42.666667 0 0 0-14.08-8.96 42.666667 42.666667 0 0 0-32.426666 0 42.666667 42.666667 0 0 0-14.08 8.96l-170.666667 170.666666a42.666667 42.666667 0 1 0 60.586667 60.586667zM896 597.333333a42.666667 42.666667 0 0 0-42.666667 42.666667v170.666667a42.666667 42.666667 0 0 1-42.666666 42.666666H213.333333a42.666667 42.666667 0 0 1-42.666666-42.666666v-170.666667a42.666667 42.666667 0 0 0-85.333334 0v170.666667a128 128 0 0 0 128 128h597.333334a128 128 0 0 0 128-128v-170.666667a42.666667 42.666667 0 0 0-42.666667-42.666667z"></path>
    </symbol>
    <symbol id="save" viewBox="0 0 1024 1024">
        <path d="M928 896V314.24c0-8.32-3.488-16.64-9.6-22.72l-187.84-186.24a31.36 31.36 0 0 0-22.4-9.28H672v160c0 52.8-43.2 96-96 96H256c-52.8 0-96-43.2-96-96V96H128c-17.6 0-32 14.4-32 32v768c0 17.6 14.4 32 32 32h64v-288c0-52.8 43.2-96 96-96h448c52.8 0 96 43.2 96 96v288h64c17.632 0 32-14.4 32-32z m-160 32v-288c0-17.6-14.368-32-32-32H288c-17.6 0-32 14.4-32 32v288h512zM224 96v160c0 17.6 14.4 32 32 32h320c17.632 0 32-14.4 32-32V96H224z m739.52 150.08c18.272 17.92 28.48 42.88 28.48 68.16V896c0 52.8-43.2 96-96 96H128c-52.8 0-96-43.2-96-96V128c0-52.8 43.2-96 96-96h580.16c25.632 0 49.632 9.92 67.52 27.84l187.84 186.24zM512 256a32 32 0 0 1-32-32V160a32 32 0 0 1 64 0v64a32 32 0 0 1-32 32z"></path>
    </symbol>
    <symbol id="video" viewBox="0 0 1024 1024">
        <path d="M266.666667 170.666667h490.666666a138.666667 138.666667 0 0 1 138.453334 130.816L896 309.333333v405.333334a138.666667 138.666667 0 0 1-130.816 138.453333L757.333333 853.333333H266.666667a138.666667 138.666667 0 0 1-138.453334-130.816L128 714.666667v-405.333334a138.666667 138.666667 0 0 1 130.816-138.453333L266.666667 170.666667h490.666666-490.666666z m490.666666 64H266.666667a74.666667 74.666667 0 0 0-74.410667 68.522666L192 309.333333v405.333334a74.666667 74.666667 0 0 0 68.522667 74.410666l6.144 0.256h490.666666a74.666667 74.666667 0 0 0 74.410667-68.565333l0.256-6.101333v-405.333334a74.666667 74.666667 0 0 0-68.565333-74.410666L757.333333 234.666667z m-328.405333 174.293333a21.333333 21.333333 0 0 1 25.045333-10.922667l3.584 1.408 186.965334 93.44a21.333333 21.333333 0 0 1 3.242666 36.181334l-3.242666 2.005333-186.965334 93.482667a21.333333 21.333333 0 0 1-30.549333-15.232L426.666667 605.44V418.517333a21.333333 21.333333 0 0 1 2.261333-9.557333z"></path>
    </symbol>
</svg>