<svg xmlns="http://www.w3.org/2000/svg" class="store">
    <symbol id="home" viewBox="0 0 20 20">
        <path
            d="M10.229 0L0 7.697l.861 1.357.825-.621V20h16.657V8.459l.757.599.9-1.327L10.229 0zm1.3 18.352H8.5v-6.594h3.03v6.594zm5.3 0h-3.786V10.11H6.986v8.242H3.2V7.292l7-5.266 6.63 5.238v11.088z" />
    </symbol>
    <symbol id="play" viewBox="0 0 1024 1024">
        <path
            d="M912.724884 429.355681L208.797545 13.198638C151.603449-20.597874 64.01249 12.198741 64.01249 95.790112V927.904219c0 74.992259 81.391599 120.187594 144.785055 82.591475l703.927339-415.957064c62.793518-36.996181 62.993498-128.186768 0-165.182949z"></path>
    </symbol>
</svg>